<svg id="All_glyphs" data-name="All glyphs" xmlns="http://www.w3.org/2000/svg" viewBox="0 0 70 100"><defs><style>.cls-1{fill:#0eb493;}</style></defs><title>brandicon</title><path class="cls-1" d="M81.46,162.53c1.53-5,3.85-12.06,7-22.25,13.54-2.19,19.14,1.74,27.73-13.93-7,2.19-15.39-4-14.93-6.73s19.56,1.94,32.07-16.19C117.51,107,112.47,99.16,114.5,98c4.7-2.72,18.63-1.13,26.06-8.51,3.83-3.8,5.62-13,4.07-16.34-1.88-4-13.28-9.93-19.57-9.37S108.9,88.2,106,88s-3.51-10.7,1.6-20.47C102.18,70,92.31,77.54,89.22,84c-5.77,12,.54,39.61-1.48,40.6s-8.83-12.67-10.86-18.85c-2.78,9.48-2.84,19,5.26,31.6a89.16,89.16,0,0,0-5,22.65C77.05,163.89,80.78,164.73,81.46,162.53Z" transform="translate(-75.19 -63.72)"/></svg>