<svg id="Слой_1" data-name="Слой 1" xmlns="http://www.w3.org/2000/svg" viewBox="0 0 38.4 38.4"><defs><style>.cls-1,.cls-2{fill:#000;}.cls-2{fill-rule:evenodd;}</style></defs><title>clock</title><path class="cls-1" d="M550,3368.2a16.82,16.82,0,1,1-16.8,16.8,16.82,16.82,0,0,1,16.8-16.8m0-2.4a19.2,19.2,0,1,0,19.2,19.2,19.2,19.2,0,0,0-19.2-19.2Z" transform="translate(-530.8 -3365.8)"/><path class="cls-2" d="M550,3371.8a1.2,1.2,0,0,1,1.2,1.2v12a1.2,1.2,0,0,1-2.4,0v-12A1.2,1.2,0,0,1,550,3371.8Z" transform="translate(-530.8 -3365.8)"/><path class="cls-2" d="M556.86,3391.87a1.19,1.19,0,0,1-1.69,0l-5.94-5.94a1.2,1.2,0,0,1,1.69-1.69l5.94,5.94A1.19,1.19,0,0,1,556.86,3391.87Z" transform="translate(-530.8 -3365.8)"/></svg>