<svg id="All_glyphs" data-name="All glyphs" xmlns="http://www.w3.org/2000/svg" viewBox="0 0 86 90"><defs><style>.cls-1{fill:#0eb493;}</style></defs><title>consulticon</title><path class="cls-1" d="M128.31,95.68c-7.92-18.43-20.66-32.46-27.1-29.84C90.26,70.29,107.73,91.66,54,113.51c-4.64,1.89-5.82,9.44-3.87,14s8.29,9,12.93,7.12c.8-.32,3.75-1.27,3.75-1.27,3.32,4.45,6.79,1.81,8,4.64l5.79,13.29c1.1,2.51,3.58,4.84,5.38,4.16l10.25-3.9a3.39,3.39,0,0,0,2.18-4.62c-.77-1.78-3.93-2.29-4.83-4.36s-3.85-8.7-4.7-10.79c-1.15-2.84,1.3-5.15,4.85-5.52,24.47-2.55,29,12.56,37.37,9.17C137.54,132.77,136.23,114.1,128.31,95.68Zm-2.75,29.88c-1.44.58-11.06-7-17.22-21.33s-5.38-27.41-4-28,10.82,8.58,17,22.89S127,125,125.56,125.56Z" transform="translate(-49.2 -65.53)"/></svg>