<svg id="Слой_1" data-name="Слой 1" xmlns="http://www.w3.org/2000/svg" viewBox="0 0 40.01 37.99"><defs><style>.cls-1{fill:#000;}</style></defs><title>Cup</title><path class="cls-1" d="M1450.9,3388.87c-6.92,0-12.56-6.07-12.56-13.52v-8.08a1.27,1.27,0,0,1,1.26-1.27h22.59a1.26,1.26,0,0,1,1.26,1.27v8.08C1463.45,3382.8,1457.82,3388.87,1450.9,3388.87Zm-10-20.33v6.81c0,6.06,4.5,11,10,11s10-4.93,10-11v-6.81Z" transform="translate(-1430.99 -3366)"/><path class="cls-1" d="M1450.88,3400.14a1.25,1.25,0,0,1-1.25-1.26v-10.49a1.26,1.26,0,1,1,2.51,0v10.49A1.25,1.25,0,0,1,1450.88,3400.14Z" transform="translate(-1430.99 -3366)"/><path class="cls-1" d="M1456,3400.16h-10.15a1.27,1.27,0,0,1,0-2.54H1456a1.27,1.27,0,0,1,0,2.54Z" transform="translate(-1430.99 -3366)"/><path class="cls-1" d="M1459.78,3404h-17.66a1.27,1.27,0,0,1,0-2.53h17.66a1.27,1.27,0,0,1,0,2.53Z" transform="translate(-1430.99 -3366)"/><path class="cls-1" d="M1462.48,3379.94a1.27,1.27,0,0,1,0-2.53c2.23,0,3.85-.61,4.83-1.81a6.9,6.9,0,0,0,1.16-4.53h-5.78a1.27,1.27,0,0,1,0-2.53h6.91a1.26,1.26,0,0,1,1.23,1c0,.18.88,4.62-1.57,7.64C1467.79,3379,1465.5,3379.94,1462.48,3379.94Z" transform="translate(-1430.99 -3366)"/><path class="cls-1" d="M1439.5,3379.94c-3,0-5.3-.92-6.78-2.75-2.44-3-1.6-7.46-1.56-7.64a1.24,1.24,0,0,1,1.23-1h6.91a1.27,1.27,0,0,1,0,2.53h-5.79a6.92,6.92,0,0,0,1.17,4.53c1,1.2,2.6,1.81,4.82,1.81a1.27,1.27,0,0,1,0,2.53Z" transform="translate(-1430.99 -3366)"/></svg>