<svg id="All_glyphs" data-name="All glyphs" xmlns="http://www.w3.org/2000/svg" viewBox="0 0 92 92">
<defs>
    <style>
      .cls-1 {
        fill: #062033;
        fill-rule: evenodd;
        opacity: 0.2;
      }
    </style>
  </defs>
<title>dribble</title><path class="cls-1" d="M131.28,125.51a234,234,0,0,0-14.59-22.64A39.37,39.37,0,0,0,95,130.3,145.16,145.16,0,0,0,131.28,125.51Zm4.89,13.19c.52-.16,1-.32,1.55-.46-1-2.24-2.06-4.47-3.19-6.68a144.47,144.47,0,0,1-40.33,5.6c0,.41,0,.82,0,1.24a39.16,39.16,0,0,0,10.08,26.27l0,0S115,145.56,136.17,138.7Zm-26.86,30.67v0c-.29-.23-.6-.43-.88-.67C109,169.1,109.31,169.37,109.31,169.37ZM124,100.26l-.1,0,.1,0Zm35.36,8.66a39.1,39.1,0,0,0-26-9.8,39.7,39.7,0,0,0-9.25,1.1,202.31,202.31,0,0,1,14.68,22.92C153.7,117.59,159.29,109.08,159.4,108.92Zm-26,75.48a46,46,0,1,1,46-46A46,46,0,0,1,133.45,184.4Zm6.69-39.57c-23.06,8-30.67,24.19-30.83,24.52a39.21,39.21,0,0,0,39.48,5.23,163.49,163.49,0,0,0-8.39-29.84ZM141.9,129c.92,1.88,1.8,3.78,2.62,5.7.29.68.57,1.36.84,2A91,91,0,0,1,172.73,138a39.15,39.15,0,0,0-8.94-24.56C163.71,113.56,157.41,122.66,141.9,129Zm5.86,13.93A168.84,168.84,0,0,1,155.4,171a39.28,39.28,0,0,0,16.84-26.35A57.09,57.09,0,0,0,147.76,142.92Z" transform="translate(-87.45 -92.4)"/></svg>