<svg id="Слой_1" data-name="Слой 1" xmlns="http://www.w3.org/2000/svg" viewBox="0 0 38 38"><defs><style>.cls-1{fill:#000;}</style></defs><title>Friends</title><path class="cls-1" d="M846.9,3374.32c3.43,0,6.47,2.89,6.47,4.64v5c0,1.85-.58,5.4-2.63,7a2.37,2.37,0,0,0,.33,3.95l7.48,4.14.21.1a3.26,3.26,0,0,1,.55.31v2.15H834.37v-2.12a4.14,4.14,0,0,1,.6-.36l.17-.08,7.67-4.16a2.37,2.37,0,0,0,.35-3.93c-2-1.6-2.85-5.13-2.85-7v-5c0-1.71,3.22-4.64,6.59-4.64m0-2.38c-4.43,0-9,3.7-9,7v5c0,2.18.93,6.61,3.73,8.86L834,3397s-2,.9-2,2v3a2,2,0,0,0,2,2h25.68a2,2,0,0,0,2-2v-3c0-1.18-2-2-2-2l-7.47-4.13c2.78-2.19,3.53-6.48,3.53-8.88v-5c0-3.32-4.41-7-8.84-7Z" transform="translate(-832 -3366)"/><path class="cls-1" d="M868,3391.08l-7.58-4.14c2.78-2.18,3.64-6.48,3.64-8.88v-5c0-3.32-4.52-7.05-8.95-7.05a10.44,10.44,0,0,0-7.54,3.57,12.94,12.94,0,0,1,3,.35,7.4,7.4,0,0,1,4.55-1.55c3.43,0,6.58,2.93,6.58,4.68v5c0,1.86-.69,5.4-2.74,7a2.37,2.37,0,0,0,.33,3.95l7.59,4.14.22.11a2.86,2.86,0,0,1,.54.3v2.11h-4.79a4,4,0,0,1,1.22,2.38H868a2,2,0,0,0,2-2v-3C870,3391.9,868,3391.08,868,3391.08Z" transform="translate(-832 -3366)"/></svg>