<svg id="All_glyphs" data-name="All glyphs" xmlns="http://www.w3.org/2000/svg" viewBox="0 0 89.61 88">
<defs>
    <style>
      .cls-1 {
        fill: #062033;
        fill-rule: evenodd;
        opacity: 0.2;
      }
    </style>
  </defs>
<title>google+</title><path class="cls-1" d="M51.64,87c0,7.47,2.49,12.86,7.41,16a21.16,21.16,0,0,0,11.13,3c.59,0,1.06,0,1.39,0a14.35,14.35,0,0,0,3,10h-.17c-6.44,0-27.47,1.34-27.47,18.63,0,17.58,19.31,18.47,23.19,18.47h1.27a35.78,35.78,0,0,0,14.88-3.21C94,146,97.88,139.5,97.88,130.37c0-8.82-6-14.08-10.35-17.91-2.66-2.34-5-4.36-5-6.33s1.68-3.5,3.8-5.41c3.45-3.08,6.7-7.46,6.7-15.75,0-7.29-.95-12.18-6.77-15.28A20.94,20.94,0,0,1,90.11,69c3.16-.43,7.77-.92,7.77-3.49V65h-23C74.66,65,51.64,65.87,51.64,87ZM88.75,132c.44,7-5.57,12.22-14.6,12.88-9.18.66-16.73-3.46-17.17-10.49a11.59,11.59,0,0,1,4.18-9.31,19,19,0,0,1,11.39-4.64c.52,0,1-.06,1.55-.06C82.59,120.4,88.34,125.39,88.75,132Zm-6-49.88C85,90.07,81.6,98.37,76.17,99.9a7.29,7.29,0,0,1-1.92.26c-5,0-9.9-5-11.72-12a17.27,17.27,0,0,1,.23-10.56c1.15-3.22,3.21-5.4,5.81-6.13a7,7,0,0,1,1.93-.27C76.5,71.24,80.36,73.73,82.75,82.14Zm38.74,17.28v-15H112v15H97v9.5h15v15h9.5v-15h15v-9.5Z" transform="translate(-46.88 -65.01)"/></svg>