<svg id="All_glyphs" data-name="All glyphs" xmlns="http://www.w3.org/2000/svg" viewBox="0 0 86 70"><title>loveicon</title><path d="M113.85,45.1a22.79,22.79,0,0,0-30.27,0l-5.67,5.21L72.23,45.1A22.79,22.79,0,0,0,42,45.1a20.84,20.84,0,0,0,0,31.25l35.95,33,35.94-33A20.83,20.83,0,0,0,113.85,45.1Zm-5.32,26.12L77.91,99.79,47.29,71.22A13.68,13.68,0,0,1,43,60.73c0-3.94.69-7.17,3.78-10a15.13,15.13,0,0,1,10.31-3.88c3.93,0,7.59,2.37,10.32,4.88l10.5,9.13L88.4,51.73c2.73-2.51,6.39-4.88,10.32-4.88A15.15,15.15,0,0,1,109,50.73c3.08,2.83,3.77,6.06,3.77,10A13.67,13.67,0,0,1,108.53,71.22Z" transform="translate(-34.91 -39.34)"/></svg>