<svg id="Слой_1" data-name="Слой 1" xmlns="http://www.w3.org/2000/svg" viewBox="0 0 32.07 32.11"><defs><style>.cls-1{fill:#000;}</style></defs><title>Rocket</title><path class="cls-1" d="M1135,3401l-1,0,0-1c0-5,1-6.08,3.16-7.15a8,8,0,0,0,1.61-.93l1.22,1.56a11.16,11.16,0,0,1-1.94,1.16c-1.29.64-1.93,1-2,4.38,3.5-.13,3.89-1,4.52-2.3a10.26,10.26,0,0,1,1-1.7l1.48,1.35a12.86,12.86,0,0,0-.7,1.37C1141.27,3399.78,1140.28,3401,1135,3401Z" transform="translate(-1133.93 -3369.04)"/><path class="cls-1" d="M1156,3383a4,4,0,1,1,4-4A4,4,0,0,1,1156,3383Zm0-6a2,2,0,1,0,2,2A2,2,0,0,0,1156,3377Z" transform="translate(-1133.93 -3369.04)"/><path class="cls-1" d="M1147.29,3401.15a1.18,1.18,0,0,1-.31-.05,1,1,0,0,1-.66-.72l-1.22-5.15-2.26-2.51c-1.08-1.2-1.76-1.95-2.16-2.45l-6-1.37a1,1,0,0,1-.53-1.63l3.67-4a1,1,0,0,1,.75-.33h5.56c.35-.63.76-1.44,1.18-2.29a35.59,35.59,0,0,1,3.62-6.33,12,12,0,0,1,5.1-3.66,29.39,29.39,0,0,1,11-1.61,1,1,0,0,1,.92.94c0,.26.38,6.49-1.3,11a10.83,10.83,0,0,1-3.4,4.94c-1.4,1.25-4.78,2.83-7,4.09-.83.47-1.71.94-2.21,1.25v5.16a1,1,0,0,1-.35.76l-3.7,3.69A1.07,1.07,0,0,1,1147.29,3401.15Zm-5.36-12.43,4.83,5.36a1.1,1.1,0,0,1,.23.44l.9,3.8L1150,3396v-5.22a1,1,0,0,1,.37-.78,28,28,0,0,1,2.87-1.69c2.06-1.16,5.45-2.74,6.69-3.84a8.83,8.83,0,0,0,2.85-4.14A28.31,28.31,0,0,0,1164,3371a27,27,0,0,0-9.24,1.51,10,10,0,0,0-4.28,3.09,35.26,35.26,0,0,0-3.35,5.92c-.59,1.18-1.1,2.2-1.54,2.92a1,1,0,0,1-.85.48h-5.69l-2.25,2.37,4.58,1.05A1,1,0,0,1,1141.93,3388.72Z" transform="translate(-1133.93 -3369.04)"/></svg>