<svg id="All_glyphs" data-name="All glyphs" xmlns="http://www.w3.org/2000/svg" viewBox="0 0 92 74.77">
<defs>
    <style>
      .cls-1 {
        fill: #062033;
        fill-rule: evenodd;
        opacity: 0.2;
      }
    </style>
  </defs>
  <title>twitter</title><path class="cls-1" d="M186.29,163.78a37.92,37.92,0,0,1-10.84,3,18.89,18.89,0,0,0,8.3-10.44,38,38,0,0,1-12,4.58A18.89,18.89,0,0,0,139.6,178.1a53.57,53.57,0,0,1-38.91-19.72,18.91,18.91,0,0,0,5.84,25.2A18.66,18.66,0,0,1,98,181.22v.24A18.89,18.89,0,0,0,113.12,200a18.9,18.9,0,0,1-8.52.32,18.9,18.9,0,0,0,17.63,13.11,37.87,37.87,0,0,1-23.44,8.08,37.24,37.24,0,0,1-4.5-.27,53.37,53.37,0,0,0,28.93,8.49c34.72,0,53.71-28.77,53.71-53.71,0-.82,0-1.63-.06-2.44A38.22,38.22,0,0,0,186.29,163.78Z" transform="translate(-94.29 -154.93)"/></svg>